<svg width="37" height="37" viewBox="0 0 37 37" fill="none" xmlns="http://www.w3.org/2000/svg">
<g id="instagram (1) 1">
<path id="Vector" d="M18.4979 14.6645C17.7577 14.6645 17.0341 14.884 16.4186 15.2953C15.8032 15.7065 15.3235 16.291 15.0402 16.9749C14.757 17.6587 14.6829 18.4112 14.8273 19.1372C14.9717 19.8632 15.3281 20.53 15.8515 21.0534C16.3749 21.5769 17.0418 21.9333 17.7678 22.0777C18.4937 22.2221 19.2462 22.148 19.9301 21.8647C20.614 21.5815 21.1985 21.1018 21.6097 20.4863C22.0209 19.8709 22.2404 19.1473 22.2404 18.4071C22.2404 17.9156 22.1436 17.4289 21.9556 16.9749C21.7675 16.5208 21.4918 16.1082 21.1443 15.7607C20.7967 15.4132 20.3842 15.1375 19.9301 14.9494C19.476 14.7613 18.9894 14.6645 18.4979 14.6645ZM33.4832 10.9673C33.4752 9.80187 33.2606 8.64713 32.8493 7.55671C32.5464 6.75879 32.0778 6.03418 31.4743 5.43068C30.8708 4.82718 30.1462 4.35852 29.3483 4.05562C28.2578 3.64433 27.1031 3.42974 25.9377 3.4218C23.991 3.31616 23.4175 3.31616 18.4979 3.31616C13.5783 3.31616 13.0048 3.31616 11.0581 3.4218C9.89269 3.42974 8.73795 3.64433 7.64753 4.05562C6.84961 4.35852 6.125 4.82718 5.5215 5.43068C4.918 6.03418 4.44934 6.75879 4.14644 7.55671C3.73516 8.64713 3.52056 9.80187 3.51262 10.9673C3.40698 12.914 3.40698 13.4874 3.40698 18.4071C3.40698 23.3267 3.40698 23.9002 3.51262 25.8469C3.52886 27.0164 3.74317 28.1746 4.14644 29.2725C4.448 30.0668 4.91627 30.7872 5.51971 31.3853C6.12062 31.9924 6.84679 32.461 7.64753 32.7585C8.73795 33.1698 9.89269 33.3844 11.0581 33.3923C13.0048 33.498 13.5783 33.498 18.4979 33.498C23.4175 33.498 23.991 33.498 25.9377 33.3923C27.1031 33.3844 28.2578 33.1698 29.3483 32.7585C30.149 32.461 30.8752 31.9924 31.4761 31.3853C32.0795 30.7872 32.5478 30.0668 32.8493 29.2725C33.2602 28.1768 33.4748 27.0171 33.4832 25.8469C33.5888 23.9002 33.5888 23.3267 33.5888 18.4071C33.5888 13.4874 33.5888 12.914 33.4832 10.9673ZM29.6501 23.04C29.6016 23.9712 29.4029 24.8885 29.0615 25.7563C28.7686 26.4802 28.333 27.1378 27.7808 27.69C27.2286 28.2422 26.5711 28.6777 25.8472 28.9707C24.9712 29.293 24.0487 29.4714 23.1157 29.4989C21.9235 29.4989 21.6066 29.4989 18.4979 29.4989C15.3892 29.4989 15.0723 29.4989 13.8801 29.4989C12.947 29.4714 12.0246 29.293 11.1486 28.9707C10.4003 28.6926 9.72445 28.2489 9.17171 27.6729C8.62492 27.1315 8.20264 26.4775 7.93425 25.7563C7.61064 24.8812 7.43717 23.9578 7.42116 23.0249C7.42116 21.8327 7.42116 21.5158 7.42116 18.4071C7.42116 15.2983 7.42116 14.9814 7.42116 13.7893C7.43717 12.8564 7.61064 11.9329 7.93425 11.0578C8.21235 10.3094 8.65601 9.63363 9.23207 9.08089C9.77585 8.53705 10.4292 8.11521 11.1486 7.84343C12.0246 7.5211 12.947 7.34273 13.8801 7.31525C15.0723 7.31525 15.3892 7.31525 18.4979 7.31525C21.6066 7.31525 21.9235 7.31525 23.1157 7.31525C24.0487 7.34273 24.9712 7.5211 25.8472 7.84343C26.5955 8.12153 27.2713 8.56519 27.8241 9.14125C28.3709 9.68264 28.7931 10.3367 29.0615 11.0578C29.3839 11.9338 29.5622 12.8562 29.5897 13.7893C29.5897 14.9814 29.5897 15.2983 29.5897 18.4071C29.5897 21.5158 29.6953 21.8327 29.6501 23.0249V23.04ZM27.2355 11.8123C27.0559 11.3249 26.7726 10.8822 26.4052 10.5148C26.0378 10.1475 25.5952 9.8642 25.1077 9.68453C24.4384 9.45252 23.7334 9.34014 23.0252 9.35253C21.8481 9.35253 21.5161 9.35253 18.4979 9.35253C15.4797 9.35253 15.1477 9.35253 13.9706 9.35253C13.2587 9.35948 12.5537 9.49232 11.8881 9.74489C11.4081 9.91641 10.9701 10.1881 10.6032 10.542C10.2363 10.8959 9.94898 11.3238 9.76025 11.7973C9.5411 12.4694 9.43403 13.1729 9.44335 13.8798C9.44335 15.0569 9.44335 15.3889 9.44335 18.4071C9.44335 21.4253 9.44335 21.7573 9.44335 22.9343C9.45831 23.6454 9.59089 24.3491 9.83571 25.0169C10.0154 25.5043 10.2987 25.947 10.666 26.3144C11.0334 26.6817 11.4761 26.965 11.9635 27.1447C12.6074 27.3815 13.285 27.514 13.9706 27.5371C15.1477 27.5371 15.4797 27.5371 18.4979 27.5371C21.5161 27.5371 21.8481 27.5371 23.0252 27.5371C23.7371 27.5301 24.4421 27.3973 25.1077 27.1447C25.5952 26.965 26.0378 26.6817 26.4052 26.3144C26.7726 25.947 27.0559 25.5043 27.2355 25.0169C27.4881 24.3513 27.6209 23.6462 27.6279 22.9343C27.6279 21.7573 27.6279 21.4253 27.6279 18.4071C27.6279 15.3889 27.6279 15.0569 27.6279 13.8798C27.6283 13.1672 27.4952 12.4608 27.2355 11.7973V11.8123ZM18.4979 24.1718C17.7416 24.1718 16.9927 24.0226 16.2941 23.7327C15.5955 23.4428 14.961 23.0179 14.4269 22.4824C13.8928 21.9469 13.4696 21.3113 13.1816 20.612C12.8935 19.9127 12.7463 19.1634 12.7483 18.4071C12.7483 17.2663 13.0867 16.1511 13.7208 15.2028C14.3549 14.2545 15.2562 13.5156 16.3104 13.0797C17.3647 12.6439 18.5245 12.5306 19.6432 12.7542C20.7618 12.9779 21.789 13.5284 22.5946 14.3362C23.4002 15.1439 23.948 16.1725 24.1688 17.2917C24.3895 18.4109 24.2732 19.5705 23.8346 20.6236C23.3959 21.6767 22.6547 22.576 21.7047 23.2076C20.7547 23.8392 19.6387 24.1748 18.4979 24.1718ZM24.5343 13.7742C24.2007 13.7389 23.8919 13.5813 23.6676 13.332C23.4432 13.0826 23.319 12.759 23.319 12.4235C23.319 12.0881 23.4432 11.7645 23.6676 11.5151C23.8919 11.2657 24.2007 11.1082 24.5343 11.0729C24.8678 11.1082 25.1766 11.2657 25.4009 11.5151C25.6253 11.7645 25.7495 12.0881 25.7495 12.4235C25.7495 12.759 25.6253 13.0826 25.4009 13.332C25.1766 13.5813 24.8678 13.7389 24.5343 13.7742Z" fill="white"/>
</g>
</svg>
