<svg width="19" height="19" viewBox="0 0 19 19" fill="none" xmlns="http://www.w3.org/2000/svg">
<g id="search">
<path id="search_2" d="M18.5284 17.2565L15.1246 13.8628C16.2228 12.4637 16.8187 10.736 16.8165 8.95739C16.8165 7.37339 16.3468 5.82496 15.4668 4.50792C14.5868 3.19087 13.3359 2.16436 11.8725 1.55819C10.4091 0.952017 8.79879 0.793416 7.24522 1.10244C5.69166 1.41146 4.26462 2.17423 3.14457 3.29429C2.02451 4.41434 1.26174 5.84138 0.952719 7.39494C0.643697 8.94851 0.802298 10.5588 1.40847 12.0222C2.01464 13.4857 3.04115 14.7365 4.3582 15.6165C5.67524 16.4965 7.22367 16.9662 8.80767 16.9662C10.5863 16.9684 12.314 16.3726 13.7131 15.2744L17.1068 18.6781C17.1999 18.7719 17.3106 18.8464 17.4326 18.8973C17.5546 18.9481 17.6855 18.9742 17.8176 18.9742C17.9498 18.9742 18.0806 18.9481 18.2026 18.8973C18.3246 18.8464 18.4353 18.7719 18.5284 18.6781C18.6222 18.5851 18.6967 18.4743 18.7475 18.3523C18.7984 18.2303 18.8245 18.0995 18.8245 17.9673C18.8245 17.8352 18.7984 17.7043 18.7475 17.5823C18.6967 17.4603 18.6222 17.3496 18.5284 17.2565ZM2.80104 8.95739C2.80104 7.76939 3.15332 6.60807 3.81334 5.62029C4.47336 4.6325 5.41147 3.86262 6.50903 3.40799C7.6066 2.95336 8.81433 2.83441 9.97951 3.06618C11.1447 3.29794 12.215 3.87002 13.055 4.71006C13.895 5.5501 14.4671 6.62038 14.6989 7.78555C14.9307 8.95073 14.8117 10.1585 14.3571 11.256C13.9024 12.3536 13.1326 13.2917 12.1448 13.9517C11.157 14.6117 9.99567 14.964 8.80767 14.964C7.21461 14.964 5.6868 14.3312 4.56034 13.2047C3.43388 12.0783 2.80104 10.5504 2.80104 8.95739Z" fill="#DDE6ED"/>
</g>
</svg>
