<svg width="40" height="40" viewBox="0 0 40 40" fill="none" xmlns="http://www.w3.org/2000/svg">
<g id="tweet 1">
<path id="Vector" d="M37.7808 6.37282C37.5382 6.13029 37.1744 6.13029 36.9319 6.37282C36.0831 6.85788 34.6279 7.10042 33.2939 7.22168C32.9301 7.22168 32.4451 7.34295 32.0813 7.34295C30.6261 6.00902 28.6858 5.16016 26.6243 5.16016C22.2587 5.16016 18.742 8.67688 18.742 13.0425V13.7701C13.6488 13.285 8.91942 10.7384 5.64523 6.85788C5.4027 6.61535 5.16017 6.49408 4.91763 6.49408C4.55384 6.61535 4.3113 6.73662 4.19004 6.97915C4.19004 7.10042 3.09864 9.52574 3.09864 15.8316C3.09864 21.8949 8.91942 26.1392 11.5873 27.7157C8.91942 29.4134 5.7665 30.0197 2.61358 29.7772C2.24978 29.7772 1.88598 30.0197 1.76471 30.3835C1.64345 30.7473 1.76471 31.1111 2.12851 31.3537C5.52397 33.5365 9.40449 34.6279 13.5275 34.6279C26.6243 34.6279 34.5066 24.199 34.6279 14.1339C34.8704 13.6488 35.7193 12.5574 37.1744 10.2533C37.5382 9.64701 38.0233 7.82801 38.1446 7.22168C38.1446 6.97915 38.0233 6.61535 37.7808 6.37282Z" fill="white"/>
</g>
</svg>
