<svg width="12" height="7" viewBox="0 0 12 7" fill="none" xmlns="http://www.w3.org/2000/svg">
<g id="Vector">
<path id="Vector_2" d="M0.288927 0.239739C0.135493 0.393437 0.0493164 0.601738 0.0493164 0.818913C0.0493164 1.03609 0.135493 1.24439 0.288927 1.39809L4.91605 6.02991C5.09473 6.2086 5.33612 6.28854 5.56967 6.26659C5.78128 6.26659 5.9921 6.18743 6.15276 6.02677L10.7822 1.3973C10.8582 1.3213 10.9185 1.23106 10.9597 1.13176C11.0008 1.03245 11.022 0.926011 11.022 0.818521C11.022 0.711032 11.0008 0.604595 10.9597 0.505287C10.9185 0.40598 10.8582 0.315746 10.7822 0.239739C10.7062 0.163733 10.616 0.103441 10.5167 0.0623066C10.4174 0.0211721 10.3109 2.51101e-07 10.2035 2.53218e-07C10.096 2.55335e-07 9.98952 0.0211721 9.89022 0.0623066C9.79091 0.103441 9.70068 0.163733 9.62467 0.239739L5.53362 4.33079L1.44571 0.239739C1.36979 0.16372 1.27963 0.103412 1.18038 0.0622648C1.08114 0.0211176 0.974754 -6.10352e-05 0.867317 -6.10352e-05C0.759881 -6.10352e-05 0.653497 0.0211176 0.554252 0.0622648C0.455007 0.103412 0.364847 0.16372 0.288927 0.239739Z" fill="white"/>
</g>
</svg>
