<svg width="28" height="28" viewBox="0 0 28 28" fill="none" xmlns="http://www.w3.org/2000/svg">
<g id="Vector">
<path id="Vector_2" d="M22.4413 0.825439C23.8443 0.825439 25.0439 1.32356 26.0401 2.31979C27.0364 3.31603 27.5345 4.51564 27.5345 5.91862V22.8959C27.5345 24.2989 27.0364 25.4985 26.0401 26.4947C25.0439 27.491 23.8443 27.9891 22.4413 27.9891H19.1166V17.4667H22.6358L23.1664 13.3639H19.1166V10.7465C19.1166 10.0863 19.2551 9.59114 19.5322 9.26102C19.8092 8.93091 20.3486 8.76585 21.1503 8.76585L23.3079 8.74817V5.08744C22.5651 4.98133 21.5158 4.92828 20.16 4.92828C18.5566 4.92828 17.2744 5.39987 16.3136 6.34305C15.3527 7.28623 14.8723 8.61848 14.8723 10.3398V13.3639H11.3353V17.4667H14.8723V27.9891H5.46403C4.06105 27.9891 2.86144 27.491 1.8652 26.4947C0.868968 25.4985 0.37085 24.2989 0.37085 22.8959V5.91862C0.37085 4.51564 0.868968 3.31603 1.8652 2.31979C2.86144 1.32356 4.06105 0.825439 5.46403 0.825439H22.4413Z" fill="white"/>
</g>
</svg>
